<?xml version="1.0" encoding="UTF-8" standalone="no"?><svg xmlns="http://www.w3.org/2000/svg" xmlns:xlink="http://www.w3.org/1999/xlink" contentScriptType="application/ecmascript" contentStyleType="text/css" height="1569px" preserveAspectRatio="none" style="width:948px;height:1569px;" version="1.1" viewBox="0 0 948 1569" width="948px" zoomAndPan="magnify"><defs><filter height="300%" id="ff4wmllq2zakp" width="300%" x="-1" y="-1"><feGaussianBlur result="blurOut" stdDeviation="2.0"/><feColorMatrix in="blurOut" result="blurOut2" type="matrix" values="0 0 0 0 0 0 0 0 0 0 0 0 0 0 0 0 0 0 .4 0"/><feOffset dx="4.0" dy="4.0" in="blurOut2" result="blurOut3"/><feBlend in="SourceGraphic" in2="blurOut3" mode="normal"/></filter></defs><g><rect fill="#AAEEEE" filter="url(#ff4wmllq2zakp)" height="31.856" style="stroke: #A80036; stroke-width: 1.0;" width="10" x="235" y="473.501"/><rect fill="#AAEEEE" filter="url(#ff4wmllq2zakp)" height="95.5679" style="stroke: #A80036; stroke-width: 1.0;" width="10" x="235" y="537.2129"/><rect fill="#AAEEEE" filter="url(#ff4wmllq2zakp)" height="159.2798" style="stroke: #A80036; stroke-width: 1.0;" width="10" x="235" y="664.6367"/><rect fill="#AAEEEE" filter="url(#ff4wmllq2zakp)" height="605.2632" style="stroke: #A80036; stroke-width: 1.0;" width="10" x="235" y="855.7725"/><rect fill="#FFBBBB" filter="url(#ff4wmllq2zakp)" height="95.5679" style="stroke: #A80036; stroke-width: 1.0;" width="10" x="571" y="123.0854"/><rect fill="#FFBBBB" filter="url(#ff4wmllq2zakp)" height="31.856" style="stroke: #A80036; stroke-width: 1.0;" width="10" x="571" y="250.5093"/><rect fill="#FFBBBB" filter="url(#ff4wmllq2zakp)" height="31.856" style="stroke: #A80036; stroke-width: 1.0;" width="10" x="571" y="314.2212"/><rect fill="#FFBBBB" filter="url(#ff4wmllq2zakp)" height="63.7119" style="stroke: #A80036; stroke-width: 1.0;" width="10" x="571" y="377.9331"/><rect fill="#FFBBBB" filter="url(#ff4wmllq2zakp)" height="31.856" style="stroke: #A80036; stroke-width: 1.0;" width="10" x="571" y="537.2129"/><rect fill="#FFBBBB" filter="url(#ff4wmllq2zakp)" height="31.856" style="stroke: #A80036; stroke-width: 1.0;" width="10" x="571" y="664.6367"/><rect fill="#FFBBBB" filter="url(#ff4wmllq2zakp)" height="31.856" style="stroke: #A80036; stroke-width: 1.0;" width="10" x="571" y="855.7725"/><rect fill="#FFBBBB" filter="url(#ff4wmllq2zakp)" height="31.856" style="stroke: #A80036; stroke-width: 1.0;" width="10" x="680.5" y="473.501"/><rect fill="#FFBBBB" filter="url(#ff4wmllq2zakp)" height="31.856" style="stroke: #A80036; stroke-width: 1.0;" width="10" x="680.5" y="600.9248"/><rect fill="#FFBBBB" filter="url(#ff4wmllq2zakp)" height="31.856" style="stroke: #A80036; stroke-width: 1.0;" width="10" x="680.5" y="919.4844"/><rect fill="#FFBBBB" filter="url(#ff4wmllq2zakp)" height="31.856" style="stroke: #A80036; stroke-width: 1.0;" width="10" x="680.5" y="1110.6201"/><rect fill="#FFBBBB" filter="url(#ff4wmllq2zakp)" height="95.5679" style="stroke: #A80036; stroke-width: 1.0;" width="10" x="914.5" y="728.3486"/><rect fill="#FFBBBB" filter="url(#ff4wmllq2zakp)" height="95.5679" style="stroke: #A80036; stroke-width: 1.0;" width="10" x="914.5" y="983.1963"/><rect fill="#FFBBBB" filter="url(#ff4wmllq2zakp)" height="95.5679" style="stroke: #A80036; stroke-width: 1.0;" width="10" x="914.5" y="1174.332"/><rect fill="#FFBBBB" filter="url(#ff4wmllq2zakp)" height="159.2798" style="stroke: #A80036; stroke-width: 1.0;" width="10" x="914.5" y="1301.7559"/><line style="stroke: #A80036; stroke-width: 1.0; stroke-dasharray: 5.0,5.0;" x1="60" x2="60" y1="89.2295" y2="1479.0356"/><line style="stroke: #A80036; stroke-width: 1.0; stroke-dasharray: 5.0,5.0;" x1="175" x2="175" y1="89.2295" y2="1479.0356"/><line style="stroke: #A80036; stroke-width: 1.0; stroke-dasharray: 5.0,5.0;" x1="240" x2="240" y1="89.2295" y2="1479.0356"/><line style="stroke: #A80036; stroke-width: 1.0; stroke-dasharray: 5.0,5.0;" x1="575.5" x2="575.5" y1="89.2295" y2="1479.0356"/><line style="stroke: #A80036; stroke-width: 1.0; stroke-dasharray: 5.0,5.0;" x1="685.5" x2="685.5" y1="89.2295" y2="1479.0356"/><line style="stroke: #A80036; stroke-width: 1.0; stroke-dasharray: 5.0,5.0;" x1="919.5" x2="919.5" y1="89.2295" y2="1479.0356"/><text fill="#000000" font-family="sans-serif" font-size="14" lengthAdjust="spacingAndGlyphs" textLength="98" x="8" y="86.1533">10xData/Seurat</text><path d="M42,34 C42,24 60,24 60,24 C60,24 78,24 78,34 L78,60 C78,70 60,70 60,70 C60,70 42,70 42,60 L42,34 " fill="#FEFECE" filter="url(#ff4wmllq2zakp)" style="stroke: #000000; stroke-width: 1.5;"/><path d="M42,34 C42,44 60,44 60,44 C60,44 78,44 78,34 " fill="none" style="stroke: #000000; stroke-width: 1.5;"/><text fill="#000000" font-family="sans-serif" font-size="14" lengthAdjust="spacingAndGlyphs" textLength="98" x="8" y="1494.189">10xData/Seurat</text><path d="M42,1507.2651 C42,1497.2651 60,1497.2651 60,1497.2651 C60,1497.2651 78,1497.2651 78,1507.2651 L78,1533.2651 C78,1543.2651 60,1543.2651 60,1543.2651 C60,1543.2651 42,1543.2651 42,1533.2651 L42,1507.2651 " fill="#FEFECE" filter="url(#ff4wmllq2zakp)" style="stroke: #000000; stroke-width: 1.5;"/><path d="M42,1507.2651 C42,1517.2651 60,1517.2651 60,1517.2651 C60,1517.2651 78,1517.2651 78,1507.2651 " fill="none" style="stroke: #000000; stroke-width: 1.5;"/><rect fill="#FEFECE" filter="url(#ff4wmllq2zakp)" height="33.2295" style="stroke: #A80036; stroke-width: 1.5;" width="72" x="137" y="51"/><text fill="#000000" font-family="sans-serif" font-size="14" lengthAdjust="spacingAndGlyphs" textLength="58" x="144" y="74.1533">DataSets</text><rect fill="#FEFECE" filter="url(#ff4wmllq2zakp)" height="33.2295" style="stroke: #A80036; stroke-width: 1.5;" width="72" x="137" y="1478.0356"/><text fill="#000000" font-family="sans-serif" font-size="14" lengthAdjust="spacingAndGlyphs" textLength="58" x="144" y="1501.189">DataSets</text><text fill="#000000" font-family="sans-serif" font-size="14" lengthAdjust="spacingAndGlyphs" textLength="28" x="223" y="86.1533">user</text><ellipse cx="240" cy="13" fill="#FEFECE" filter="url(#ff4wmllq2zakp)" rx="8" ry="8" style="stroke: #A80036; stroke-width: 2.0;"/><path d="M240,21 L240,48 M227,29 L253,29 M240,48 L227,63 M240,48 L253,63 " fill="none" filter="url(#ff4wmllq2zakp)" style="stroke: #A80036; stroke-width: 2.0;"/><text fill="#000000" font-family="sans-serif" font-size="14" lengthAdjust="spacingAndGlyphs" textLength="28" x="223" y="1494.189">user</text><ellipse cx="240" cy="1507.2651" fill="#FEFECE" filter="url(#ff4wmllq2zakp)" rx="8" ry="8" style="stroke: #A80036; stroke-width: 2.0;"/><path d="M240,1515.2651 L240,1542.2651 M227,1523.2651 L253,1523.2651 M240,1542.2651 L227,1557.2651 M240,1542.2651 L253,1557.2651 " fill="none" filter="url(#ff4wmllq2zakp)" style="stroke: #A80036; stroke-width: 2.0;"/><rect fill="#FEFECE" filter="url(#ff4wmllq2zakp)" height="33.2295" style="stroke: #A80036; stroke-width: 1.5;" width="99" x="524.5" y="51"/><text fill="#000000" font-family="sans-serif" font-size="14" lengthAdjust="spacingAndGlyphs" textLength="85" x="531.5" y="74.1533">CoreMethods</text><rect fill="#FEFECE" filter="url(#ff4wmllq2zakp)" height="33.2295" style="stroke: #A80036; stroke-width: 1.5;" width="99" x="524.5" y="1478.0356"/><text fill="#000000" font-family="sans-serif" font-size="14" lengthAdjust="spacingAndGlyphs" textLength="85" x="531.5" y="1501.189">CoreMethods</text><rect fill="#FEFECE" filter="url(#ff4wmllq2zakp)" height="33.2295" style="stroke: #A80036; stroke-width: 1.5;" width="92" x="637.5" y="51"/><text fill="#000000" font-family="sans-serif" font-size="14" lengthAdjust="spacingAndGlyphs" textLength="78" x="644.5" y="74.1533">PlotMethods</text><rect fill="#FEFECE" filter="url(#ff4wmllq2zakp)" height="33.2295" style="stroke: #A80036; stroke-width: 1.5;" width="92" x="637.5" y="1478.0356"/><text fill="#000000" font-family="sans-serif" font-size="14" lengthAdjust="spacingAndGlyphs" textLength="78" x="644.5" y="1501.189">PlotMethods</text><rect fill="#FEFECE" filter="url(#ff4wmllq2zakp)" height="33.2295" style="stroke: #A80036; stroke-width: 1.5;" width="40" x="897.5" y="51"/><text fill="#000000" font-family="sans-serif" font-size="14" lengthAdjust="spacingAndGlyphs" textLength="26" x="904.5" y="74.1533">Utils</text><rect fill="#FEFECE" filter="url(#ff4wmllq2zakp)" height="33.2295" style="stroke: #A80036; stroke-width: 1.5;" width="40" x="897.5" y="1478.0356"/><text fill="#000000" font-family="sans-serif" font-size="14" lengthAdjust="spacingAndGlyphs" textLength="26" x="904.5" y="1501.189">Utils</text><rect fill="#AAEEEE" filter="url(#ff4wmllq2zakp)" height="31.856" style="stroke: #A80036; stroke-width: 1.0;" width="10" x="235" y="473.501"/><rect fill="#AAEEEE" filter="url(#ff4wmllq2zakp)" height="95.5679" style="stroke: #A80036; stroke-width: 1.0;" width="10" x="235" y="537.2129"/><rect fill="#AAEEEE" filter="url(#ff4wmllq2zakp)" height="159.2798" style="stroke: #A80036; stroke-width: 1.0;" width="10" x="235" y="664.6367"/><rect fill="#AAEEEE" filter="url(#ff4wmllq2zakp)" height="605.2632" style="stroke: #A80036; stroke-width: 1.0;" width="10" x="235" y="855.7725"/><rect fill="#FFBBBB" filter="url(#ff4wmllq2zakp)" height="95.5679" style="stroke: #A80036; stroke-width: 1.0;" width="10" x="571" y="123.0854"/><rect fill="#FFBBBB" filter="url(#ff4wmllq2zakp)" height="31.856" style="stroke: #A80036; stroke-width: 1.0;" width="10" x="571" y="250.5093"/><rect fill="#FFBBBB" filter="url(#ff4wmllq2zakp)" height="31.856" style="stroke: #A80036; stroke-width: 1.0;" width="10" x="571" y="314.2212"/><rect fill="#FFBBBB" filter="url(#ff4wmllq2zakp)" height="63.7119" style="stroke: #A80036; stroke-width: 1.0;" width="10" x="571" y="377.9331"/><rect fill="#FFBBBB" filter="url(#ff4wmllq2zakp)" height="31.856" style="stroke: #A80036; stroke-width: 1.0;" width="10" x="571" y="537.2129"/><rect fill="#FFBBBB" filter="url(#ff4wmllq2zakp)" height="31.856" style="stroke: #A80036; stroke-width: 1.0;" width="10" x="571" y="664.6367"/><rect fill="#FFBBBB" filter="url(#ff4wmllq2zakp)" height="31.856" style="stroke: #A80036; stroke-width: 1.0;" width="10" x="571" y="855.7725"/><rect fill="#FFBBBB" filter="url(#ff4wmllq2zakp)" height="31.856" style="stroke: #A80036; stroke-width: 1.0;" width="10" x="680.5" y="473.501"/><rect fill="#FFBBBB" filter="url(#ff4wmllq2zakp)" height="31.856" style="stroke: #A80036; stroke-width: 1.0;" width="10" x="680.5" y="600.9248"/><rect fill="#FFBBBB" filter="url(#ff4wmllq2zakp)" height="31.856" style="stroke: #A80036; stroke-width: 1.0;" width="10" x="680.5" y="919.4844"/><rect fill="#FFBBBB" filter="url(#ff4wmllq2zakp)" height="31.856" style="stroke: #A80036; stroke-width: 1.0;" width="10" x="680.5" y="1110.6201"/><rect fill="#FFBBBB" filter="url(#ff4wmllq2zakp)" height="95.5679" style="stroke: #A80036; stroke-width: 1.0;" width="10" x="914.5" y="728.3486"/><rect fill="#FFBBBB" filter="url(#ff4wmllq2zakp)" height="95.5679" style="stroke: #A80036; stroke-width: 1.0;" width="10" x="914.5" y="983.1963"/><rect fill="#FFBBBB" filter="url(#ff4wmllq2zakp)" height="95.5679" style="stroke: #A80036; stroke-width: 1.0;" width="10" x="914.5" y="1174.332"/><rect fill="#FFBBBB" filter="url(#ff4wmllq2zakp)" height="159.2798" style="stroke: #A80036; stroke-width: 1.0;" width="10" x="914.5" y="1301.7559"/><polygon fill="#A80036" points="559,119.0854,569,123.0854,559,127.0854,563,123.0854" style="stroke: #A80036; stroke-width: 1.0;"/><line style="stroke: #A80036; stroke-width: 1.0;" x1="240" x2="565" y1="123.0854" y2="123.0854"/><text fill="#000000" font-family="sans-serif" font-size="13" lengthAdjust="spacingAndGlyphs" textLength="81" x="247" y="118.229">Load10xVDJ()</text><polygon fill="#A80036" points="186,150.9414,176,154.9414,186,158.9414,182,154.9414" style="stroke: #A80036; stroke-width: 1.0;"/><line style="stroke: #A80036; stroke-width: 1.0;" x1="180" x2="570" y1="154.9414" y2="154.9414"/><text fill="#000000" font-family="sans-serif" font-size="13" lengthAdjust="spacingAndGlyphs" textLength="97" x="192" y="150.085">Create a StcrSet</text><polygon fill="#A80036" points="71,182.7974,61,186.7974,71,190.7974,67,186.7974" style="stroke: #A80036; stroke-width: 1.0;"/><line style="stroke: #A80036; stroke-width: 1.0;" x1="65" x2="174" y1="186.7974" y2="186.7974"/><text fill="#000000" font-family="sans-serif" font-size="13" lengthAdjust="spacingAndGlyphs" textLength="91" x="77" y="181.9409">Uses input data</text><polygon fill="#A80036" points="228,214.6533,238,218.6533,228,222.6533,232,218.6533" style="stroke: #A80036; stroke-width: 1.0;"/><line style="stroke: #A80036; stroke-width: 1.0;" x1="60" x2="234" y1="218.6533" y2="218.6533"/><text fill="#000000" font-family="sans-serif" font-size="13" lengthAdjust="spacingAndGlyphs" textLength="97" x="67" y="213.7969">Return a StcrSet</text><polygon fill="#A80036" points="559,246.5093,569,250.5093,559,254.5093,563,250.5093" style="stroke: #A80036; stroke-width: 1.0;"/><line style="stroke: #A80036; stroke-width: 1.0;" x1="240" x2="565" y1="250.5093" y2="250.5093"/><text fill="#000000" font-family="sans-serif" font-size="13" lengthAdjust="spacingAndGlyphs" textLength="72" x="247" y="245.6528">SetSample()</text><polygon fill="#A80036" points="251,278.3652,241,282.3652,251,286.3652,247,282.3652" style="stroke: #A80036; stroke-width: 1.0;"/><line style="stroke: #A80036; stroke-width: 1.0;" x1="245" x2="575" y1="282.3652" y2="282.3652"/><text fill="#000000" font-family="sans-serif" font-size="13" lengthAdjust="spacingAndGlyphs" textLength="102" x="257" y="277.5088">Assign sample ID</text><polygon fill="#A80036" points="559,310.2212,569,314.2212,559,318.2212,563,314.2212" style="stroke: #A80036; stroke-width: 1.0;"/><line style="stroke: #A80036; stroke-width: 1.0;" x1="240" x2="565" y1="314.2212" y2="314.2212"/><text fill="#000000" font-family="sans-serif" font-size="13" lengthAdjust="spacingAndGlyphs" textLength="95" x="247" y="309.3647">MergeSamples()</text><polygon fill="#A80036" points="251,342.0771,241,346.0771,251,350.0771,247,346.0771" style="stroke: #A80036; stroke-width: 1.0;"/><line style="stroke: #A80036; stroke-width: 1.0;" x1="245" x2="575" y1="346.0771" y2="346.0771"/><text fill="#000000" font-family="sans-serif" font-size="13" lengthAdjust="spacingAndGlyphs" textLength="115" x="257" y="341.2207">Merge two StcrSets</text><polygon fill="#A80036" points="559,373.9331,569,377.9331,559,381.9331,563,377.9331" style="stroke: #A80036; stroke-width: 1.0;"/><line style="stroke: #A80036; stroke-width: 1.0;" x1="240" x2="565" y1="377.9331" y2="377.9331"/><text fill="#000000" font-family="sans-serif" font-size="13" lengthAdjust="spacingAndGlyphs" textLength="82" x="247" y="373.0767">ImportSeurat()</text><polygon fill="#A80036" points="71,405.7891,61,409.7891,71,413.7891,67,409.7891" style="stroke: #A80036; stroke-width: 1.0;"/><line style="stroke: #A80036; stroke-width: 1.0;" x1="65" x2="570" y1="409.7891" y2="409.7891"/><text fill="#000000" font-family="sans-serif" font-size="13" lengthAdjust="spacingAndGlyphs" textLength="167" x="77" y="404.9326">Load seurat obj. to a StcrSet</text><polygon fill="#A80036" points="228,437.645,238,441.645,228,445.645,232,441.645" style="stroke: #A80036; stroke-width: 1.0;"/><line style="stroke: #A80036; stroke-width: 1.0;" x1="60" x2="234" y1="441.645" y2="441.645"/><text fill="#000000" font-family="sans-serif" font-size="13" lengthAdjust="spacingAndGlyphs" textLength="97" x="67" y="436.7886">Return a StcrSet</text><polygon fill="#A80036" points="668.5,469.501,678.5,473.501,668.5,477.501,672.5,473.501" style="stroke: #A80036; stroke-width: 1.0;"/><line style="stroke: #A80036; stroke-width: 1.0;" x1="245" x2="674.5" y1="473.501" y2="473.501"/><text fill="#000000" font-family="sans-serif" font-size="13" lengthAdjust="spacingAndGlyphs" textLength="121" x="252" y="468.6445">PlotTCR(): TCR gene</text><polygon fill="#A80036" points="251,501.3569,241,505.3569,251,509.3569,247,505.3569" style="stroke: #A80036; stroke-width: 1.0;"/><line style="stroke: #A80036; stroke-width: 1.0;" x1="245" x2="684.5" y1="505.3569" y2="505.3569"/><text fill="#000000" font-family="sans-serif" font-size="13" lengthAdjust="spacingAndGlyphs" textLength="118" x="257" y="500.5005">Return a scatter plot</text><polygon fill="#A80036" points="559,533.2129,569,537.2129,559,541.2129,563,537.2129" style="stroke: #A80036; stroke-width: 1.0;"/><line style="stroke: #A80036; stroke-width: 1.0;" x1="245" x2="565" y1="537.2129" y2="537.2129"/><text fill="#000000" font-family="sans-serif" font-size="13" lengthAdjust="spacingAndGlyphs" textLength="106" x="252" y="532.3564">SetVDJcountMat()</text><polygon fill="#A80036" points="256,565.0688,246,569.0688,256,573.0688,252,569.0688" style="stroke: #A80036; stroke-width: 1.0;"/><line style="stroke: #A80036; stroke-width: 1.0;" x1="250" x2="575" y1="569.0688" y2="569.0688"/><text fill="#000000" font-family="sans-serif" font-size="13" lengthAdjust="spacingAndGlyphs" textLength="302" x="262" y="564.2124">Return a matrix of (VDJ) gene expressed cell counts</text><polygon fill="#A80036" points="668.5,596.9248,678.5,600.9248,668.5,604.9248,672.5,600.9248" style="stroke: #A80036; stroke-width: 1.0;"/><line style="stroke: #A80036; stroke-width: 1.0;" x1="245" x2="674.5" y1="600.9248" y2="600.9248"/><text fill="#000000" font-family="sans-serif" font-size="13" lengthAdjust="spacingAndGlyphs" textLength="350" x="252" y="596.0684">PlotPairUsageHeatmap(): uses two matrices of (VDJ) counts</text><polygon fill="#A80036" points="251,628.7808,241,632.7808,251,636.7808,247,632.7808" style="stroke: #A80036; stroke-width: 1.0;"/><line style="stroke: #A80036; stroke-width: 1.0;" x1="245" x2="684.5" y1="632.7808" y2="632.7808"/><text fill="#000000" font-family="sans-serif" font-size="13" lengthAdjust="spacingAndGlyphs" textLength="204" x="257" y="627.9243">Return a plot of PairUsageHeatmap</text><polygon fill="#A80036" points="559,660.6367,569,664.6367,559,668.6367,563,664.6367" style="stroke: #A80036; stroke-width: 1.0;"/><line style="stroke: #A80036; stroke-width: 1.0;" x1="245" x2="565" y1="664.6367" y2="664.6367"/><text fill="#000000" font-family="sans-serif" font-size="13" lengthAdjust="spacingAndGlyphs" textLength="84" x="252" y="659.7803">SetCDR3Mat()</text><polygon fill="#A80036" points="256,692.4927,246,696.4927,256,700.4927,252,696.4927" style="stroke: #A80036; stroke-width: 1.0;"/><line style="stroke: #A80036; stroke-width: 1.0;" x1="250" x2="575" y1="696.4927" y2="696.4927"/><text fill="#000000" font-family="sans-serif" font-size="13" lengthAdjust="spacingAndGlyphs" textLength="191" x="262" y="691.6362">return a mat_cdr3 and a major_df</text><polygon fill="#A80036" points="673.5,724.3486,683.5,728.3486,673.5,732.3486,677.5,728.3486" style="stroke: #A80036; stroke-width: 1.0;"/><line style="stroke: #A80036; stroke-width: 1.0;" x1="245" x2="679.5" y1="728.3486" y2="728.3486"/><text fill="#000000" font-family="sans-serif" font-size="13" lengthAdjust="spacingAndGlyphs" textLength="141" x="252" y="723.4922">PlotFancyChainUsage():</text><polygon fill="#A80036" points="902.5,756.2046,912.5,760.2046,902.5,764.2046,906.5,760.2046" style="stroke: #A80036; stroke-width: 1.0;"/><line style="stroke: #A80036; stroke-width: 1.0;" x1="685.5" x2="908.5" y1="760.2046" y2="760.2046"/><text fill="#000000" font-family="sans-serif" font-size="13" lengthAdjust="spacingAndGlyphs" textLength="86" x="692.5" y="755.3481">ComputeFreq()</text><polygon fill="#A80036" points="696.5,788.0605,686.5,792.0605,696.5,796.0605,692.5,792.0605" style="stroke: #A80036; stroke-width: 1.0;"/><line style="stroke: #A80036; stroke-width: 1.0;" x1="690.5" x2="913.5" y1="792.0605" y2="792.0605"/><text fill="#000000" font-family="sans-serif" font-size="13" lengthAdjust="spacingAndGlyphs" textLength="158" x="702.5" y="787.2041">Return a data frame of Freq</text><polygon fill="#A80036" points="251,819.9165,241,823.9165,251,827.9165,247,823.9165" style="stroke: #A80036; stroke-width: 1.0;"/><line style="stroke: #A80036; stroke-width: 1.0;" x1="245" x2="684.5" y1="823.9165" y2="823.9165"/><text fill="#000000" font-family="sans-serif" font-size="13" lengthAdjust="spacingAndGlyphs" textLength="198" x="257" y="819.0601">Return a plot of FancyChainUsage</text><polygon fill="#A80036" points="559,851.7725,569,855.7725,559,859.7725,563,855.7725" style="stroke: #A80036; stroke-width: 1.0;"/><line style="stroke: #A80036; stroke-width: 1.0;" x1="245" x2="565" y1="855.7725" y2="855.7725"/><text fill="#000000" font-family="sans-serif" font-size="13" lengthAdjust="spacingAndGlyphs" textLength="107" x="252" y="850.916">SetCDR3PairMat()</text><polygon fill="#A80036" points="256,883.6284,246,887.6284,256,891.6284,252,887.6284" style="stroke: #A80036; stroke-width: 1.0;"/><line style="stroke: #A80036; stroke-width: 1.0;" x1="250" x2="575" y1="887.6284" y2="887.6284"/><text fill="#000000" font-family="sans-serif" font-size="13" lengthAdjust="spacingAndGlyphs" textLength="102" x="262" y="882.772">Assign sample ID</text><polygon fill="#A80036" points="668.5,915.4844,678.5,919.4844,668.5,923.4844,672.5,919.4844" style="stroke: #A80036; stroke-width: 1.0;"/><line style="stroke: #A80036; stroke-width: 1.0;" x1="245" x2="674.5" y1="919.4844" y2="919.4844"/><text fill="#000000" font-family="sans-serif" font-size="13" lengthAdjust="spacingAndGlyphs" textLength="96" x="252" y="914.6279">PlotFrequency():</text><polygon fill="#A80036" points="256,947.3403,246,951.3403,256,955.3403,252,951.3403" style="stroke: #A80036; stroke-width: 1.0;"/><line style="stroke: #A80036; stroke-width: 1.0;" x1="250" x2="684.5" y1="951.3403" y2="951.3403"/><text fill="#000000" font-family="sans-serif" font-size="13" lengthAdjust="spacingAndGlyphs" textLength="153" x="262" y="946.4839">Return a plot of Frequency</text><polygon fill="#A80036" points="673.5,979.1963,683.5,983.1963,673.5,987.1963,677.5,983.1963" style="stroke: #A80036; stroke-width: 1.0;"/><line style="stroke: #A80036; stroke-width: 1.0;" x1="245" x2="679.5" y1="983.1963" y2="983.1963"/><text fill="#000000" font-family="sans-serif" font-size="13" lengthAdjust="spacingAndGlyphs" textLength="148" x="252" y="978.3398">PlotProportionsByGene():</text><polygon fill="#A80036" points="902.5,1011.0522,912.5,1015.0522,902.5,1019.0522,906.5,1015.0522" style="stroke: #A80036; stroke-width: 1.0;"/><line style="stroke: #A80036; stroke-width: 1.0;" x1="685.5" x2="908.5" y1="1015.0522" y2="1015.0522"/><text fill="#000000" font-family="sans-serif" font-size="13" lengthAdjust="spacingAndGlyphs" textLength="86" x="692.5" y="1010.1958">ComputeFreq()</text><polygon fill="#A80036" points="696.5,1042.9082,686.5,1046.9082,696.5,1050.9082,692.5,1046.9082" style="stroke: #A80036; stroke-width: 1.0;"/><line style="stroke: #A80036; stroke-width: 1.0;" x1="690.5" x2="913.5" y1="1046.9082" y2="1046.9082"/><text fill="#000000" font-family="sans-serif" font-size="13" lengthAdjust="spacingAndGlyphs" textLength="158" x="702.5" y="1042.0518">Return a data frame of Freq</text><polygon fill="#A80036" points="256,1074.7642,246,1078.7642,256,1082.7642,252,1078.7642" style="stroke: #A80036; stroke-width: 1.0;"/><line style="stroke: #A80036; stroke-width: 1.0;" x1="250" x2="684.5" y1="1078.7642" y2="1078.7642"/><text fill="#000000" font-family="sans-serif" font-size="13" lengthAdjust="spacingAndGlyphs" textLength="205" x="262" y="1073.9077">Return a plot of ProportionsByGene</text><polygon fill="#A80036" points="668.5,1106.6201,678.5,1110.6201,668.5,1114.6201,672.5,1110.6201" style="stroke: #A80036; stroke-width: 1.0;"/><line style="stroke: #A80036; stroke-width: 1.0;" x1="245" x2="674.5" y1="1110.6201" y2="1110.6201"/><text fill="#000000" font-family="sans-serif" font-size="13" lengthAdjust="spacingAndGlyphs" textLength="100" x="252" y="1105.7637">PlotClonotypes():</text><polygon fill="#A80036" points="256,1138.4761,246,1142.4761,256,1146.4761,252,1142.4761" style="stroke: #A80036; stroke-width: 1.0;"/><line style="stroke: #A80036; stroke-width: 1.0;" x1="250" x2="684.5" y1="1142.4761" y2="1142.4761"/><text fill="#000000" font-family="sans-serif" font-size="13" lengthAdjust="spacingAndGlyphs" textLength="157" x="262" y="1137.6196">Return a plot of Clonotypes</text><polygon fill="#A80036" points="673.5,1170.332,683.5,1174.332,673.5,1178.332,677.5,1174.332" style="stroke: #A80036; stroke-width: 1.0;"/><line style="stroke: #A80036; stroke-width: 1.0;" x1="245" x2="679.5" y1="1174.332" y2="1174.332"/><text fill="#000000" font-family="sans-serif" font-size="13" lengthAdjust="spacingAndGlyphs" textLength="84" x="252" y="1169.4756">PlotDiversity():</text><polygon fill="#A80036" points="902.5,1202.188,912.5,1206.188,902.5,1210.188,906.5,1206.188" style="stroke: #A80036; stroke-width: 1.0;"/><line style="stroke: #A80036; stroke-width: 1.0;" x1="685.5" x2="908.5" y1="1206.188" y2="1206.188"/><text fill="#000000" font-family="sans-serif" font-size="13" lengthAdjust="spacingAndGlyphs" textLength="142" x="692.5" y="1201.3315">ComputeShannonIndex()</text><polygon fill="#A80036" points="696.5,1234.0439,686.5,1238.0439,696.5,1242.0439,692.5,1238.0439" style="stroke: #A80036; stroke-width: 1.0;"/><line style="stroke: #A80036; stroke-width: 1.0;" x1="690.5" x2="913.5" y1="1238.0439" y2="1238.0439"/><text fill="#000000" font-family="sans-serif" font-size="13" lengthAdjust="spacingAndGlyphs" textLength="182" x="702.5" y="1233.1875">Return a value of ShannonIndex</text><polygon fill="#A80036" points="256,1265.8999,246,1269.8999,256,1273.8999,252,1269.8999" style="stroke: #A80036; stroke-width: 1.0;"/><line style="stroke: #A80036; stroke-width: 1.0;" x1="250" x2="684.5" y1="1269.8999" y2="1269.8999"/><text fill="#000000" font-family="sans-serif" font-size="13" lengthAdjust="spacingAndGlyphs" textLength="141" x="262" y="1265.0435">Return a plot of Diversity</text><polygon fill="#A80036" points="673.5,1297.7559,683.5,1301.7559,673.5,1305.7559,677.5,1301.7559" style="stroke: #A80036; stroke-width: 1.0;"/><line style="stroke: #A80036; stroke-width: 1.0;" x1="245" x2="679.5" y1="1301.7559" y2="1301.7559"/><text fill="#000000" font-family="sans-serif" font-size="13" lengthAdjust="spacingAndGlyphs" textLength="130" x="252" y="1296.8994">PlotOverlapHeatmap():</text><polygon fill="#A80036" points="902.5,1329.6118,912.5,1333.6118,902.5,1337.6118,906.5,1333.6118" style="stroke: #A80036; stroke-width: 1.0;"/><line style="stroke: #A80036; stroke-width: 1.0;" x1="685.5" x2="908.5" y1="1333.6118" y2="1333.6118"/><text fill="#000000" font-family="sans-serif" font-size="13" lengthAdjust="spacingAndGlyphs" textLength="116" x="692.5" y="1328.7554">ComputeGeomean()</text><polygon fill="#A80036" points="696.5,1361.4678,686.5,1365.4678,696.5,1369.4678,692.5,1365.4678" style="stroke: #A80036; stroke-width: 1.0;"/><line style="stroke: #A80036; stroke-width: 1.0;" x1="690.5" x2="913.5" y1="1365.4678" y2="1365.4678"/><text fill="#000000" font-family="sans-serif" font-size="13" lengthAdjust="spacingAndGlyphs" textLength="164" x="702.5" y="1360.6113">Return a matrix of geo mean</text><polygon fill="#A80036" points="902.5,1393.3237,912.5,1397.3237,902.5,1401.3237,906.5,1397.3237" style="stroke: #A80036; stroke-width: 1.0;"/><line style="stroke: #A80036; stroke-width: 1.0;" x1="685.5" x2="908.5" y1="1397.3237" y2="1397.3237"/><text fill="#000000" font-family="sans-serif" font-size="13" lengthAdjust="spacingAndGlyphs" textLength="98" x="692.5" y="1392.4673">ComputeLogFC()</text><polygon fill="#A80036" points="696.5,1425.1797,686.5,1429.1797,696.5,1433.1797,692.5,1429.1797" style="stroke: #A80036; stroke-width: 1.0;"/><line style="stroke: #A80036; stroke-width: 1.0;" x1="690.5" x2="913.5" y1="1429.1797" y2="1429.1797"/><text fill="#000000" font-family="sans-serif" font-size="13" lengthAdjust="spacingAndGlyphs" textLength="205" x="702.5" y="1424.3232">Return a matrix of Log Fold Change</text><polygon fill="#A80036" points="251,1457.0356,241,1461.0356,251,1465.0356,247,1461.0356" style="stroke: #A80036; stroke-width: 1.0;"/><line style="stroke: #A80036; stroke-width: 1.0;" x1="245" x2="684.5" y1="1461.0356" y2="1461.0356"/><text fill="#000000" font-family="sans-serif" font-size="13" lengthAdjust="spacingAndGlyphs" textLength="187" x="257" y="1456.1792">Return a plot of OverlapHeatmap</text><!--
@startuml Stcr

database "10xData/Seurat"
participant DataSets
actor user
participant CoreMethods
participant PlotMethods
participant Utils

user -> CoreMethods: Load10xVDJ()
activate CoreMethods #FFBBBB
CoreMethods -> DataSets: Create a StcrSet
DataSets -> "10xData/Seurat": Uses input data 
"10xData/Seurat" -> user: Return a StcrSet
deactivate CoreMethods #FFBBBB
user -> CoreMethods: SetSample()
activate CoreMethods #FFBBBB
CoreMethods -> user: Assign sample ID
deactivate CoreMethods #FFBBBB
user -> CoreMethods: MergeSamples()
activate CoreMethods #FFBBBB
CoreMethods -> user: Merge two StcrSets
deactivate CoreMethods #FFBBBB
user -> CoreMethods: ImportSeurat()
activate CoreMethods #FFBBBB
CoreMethods -> "10xData/Seurat": Load seurat obj. to a StcrSet
"10xData/Seurat" -> user: Return a StcrSet
deactivate CoreMethods #FFBBBB

user -> PlotMethods: PlotTCR(): TCR gene 
activate user #AAEEEE
activate PlotMethods #FFBBBB
PlotMethods -> user: Return a scatter plot
deactivate PlotMethods #FFBBBB
deactivate user #AAEEEE

user -> CoreMethods: SetVDJcountMat()
activate user #AAEEEE
activate CoreMethods #FFBBBB
CoreMethods -> user: Return a matrix of (VDJ) gene expressed cell counts 
deactivate CoreMethods #FFBBBB
user -> PlotMethods: PlotPairUsageHeatmap(): uses two matrices of (VDJ) counts
activate PlotMethods #FFBBBB
PlotMethods -> user: Return a plot of PairUsageHeatmap
deactivate PlotMethods #FFBBBB
deactivate user #AAEEEE

user -> CoreMethods: SetCDR3Mat()
activate user #AAEEEE
activate CoreMethods #FFBBBB
CoreMethods -> user: return a mat_cdr3 and a major_df
deactivate CoreMethods #FFBBBB
user -> PlotMethods: PlotFancyChainUsage(): 
activate Utils #FFBBBB
PlotMethods -> Utils: ComputeFreq()
Utils -> PlotMethods: Return a data frame of Freq
PlotMethods -> user: Return a plot of FancyChainUsage
deactivate Utils #FFBBBB
deactivate user #AAEEEE

user -> CoreMethods: SetCDR3PairMat()
activate user #AAEEEE
activate CoreMethods #FFBBBB
CoreMethods -> user: Assign sample ID
deactivate CoreMethods #FFBBBB
user -> PlotMethods: PlotFrequency(): 
activate PlotMethods #FFBBBB
PlotMethods -> user: Return a plot of Frequency
deactivate PlotMethods #FFBBBB
user -> PlotMethods: PlotProportionsByGene(): 
activate Utils #FFBBBB
PlotMethods -> Utils: ComputeFreq()
Utils -> PlotMethods: Return a data frame of Freq
PlotMethods -> user: Return a plot of ProportionsByGene
deactivate Utils #FFBBBB
user -> PlotMethods: PlotClonotypes(): 
activate PlotMethods #FFBBBB
PlotMethods -> user: Return a plot of Clonotypes
deactivate PlotMethods #FFBBBB
user -> PlotMethods: PlotDiversity(): 
activate Utils #FFBBBB
PlotMethods -> Utils: ComputeShannonIndex()
Utils -> PlotMethods: Return a value of ShannonIndex
PlotMethods -> user: Return a plot of Diversity
deactivate Utils #FFBBBB
user -> PlotMethods: PlotOverlapHeatmap(): 
activate Utils #FFBBBB
PlotMethods -> Utils: ComputeGeomean()
Utils -> PlotMethods: Return a matrix of geo mean
PlotMethods -> Utils: ComputeLogFC()
Utils -> PlotMethods: Return a matrix of Log Fold Change
PlotMethods -> user: Return a plot of OverlapHeatmap
deactivate Utils #FFBBBB
deactivate user #AAEEEE


@enduml

PlantUML version 1.2019.09(Tue Aug 27 01:19:51 KST 2019)
(GPL source distribution)
Java Runtime: Java(TM) SE Runtime Environment
JVM: Java HotSpot(TM) 64-Bit Server VM
Java Version: 1.8.0_221-b11
Operating System: Windows 10
OS Version: 10.0
Default Encoding: MS949
Language: ko
Country: KR
--></g></svg>